<?xml version="1.0" standalone="no"?>
<!DOCTYPE svg PUBLIC "-//W3C//DTD SVG 20010904//EN"
 "http://www.w3.org/TR/2001/REC-SVG-20010904/DTD/svg10.dtd">
<svg version="1.0" xmlns="http://www.w3.org/2000/svg"
 width="576.000000pt" height="576.000000pt" viewBox="0 0 576.000000 576.000000"
 preserveAspectRatio="xMidYMid meet">
<metadata>
Created by potrace 1.14, written by Peter Selinger 2001-2017
</metadata>
<g transform="translate(0.000000,576.000000) scale(0.100000,-0.100000)"
fill="#000000" stroke="none">
<path d="M1820 5123 c0 -4 -21 -7 -46 -7 -25 1 -63 -3 -83 -8 -20 -5 -47 -11
-61 -14 -14 -3 -62 -23 -107 -46 -87 -43 -176 -119 -232 -198 -32 -44 -88
-157 -95 -189 -1 -9 -8 -27 -13 -41 -6 -14 -22 -59 -36 -100 -14 -41 -46 -133
-72 -205 -26 -71 -59 -166 -75 -210 -68 -195 -161 -455 -180 -510 -12 -33 -38
-105 -57 -160 -19 -55 -38 -109 -43 -120 -5 -11 -28 -76 -51 -145 -23 -69 -46
-133 -51 -143 -5 -10 -11 -26 -13 -35 -3 -16 -129 -372 -160 -454 -8 -21 -11
-38 -7 -38 4 0 2 -4 -3 -8 -6 -4 -18 -29 -27 -57 -18 -53 -96 -275 -154 -435
-19 -52 -36 -102 -39 -110 -8 -30 -77 -225 -83 -235 -4 -5 -7 -14 -8 -20 -1
-5 -14 -44 -29 -85 -88 -246 -89 -250 -89 -360 -1 -84 4 -119 23 -175 12 -38
26 -72 30 -75 3 -3 15 -22 26 -43 47 -90 189 -199 303 -233 40 -12 174 -29
207 -26 54 5 125 6 125 1 0 -3 20 -3 45 1 25 4 48 4 50 0 2 -4 21 -4 42 -1 21
4 55 4 76 0 20 -3 40 -2 43 2 3 5 9 7 14 4 9 -6 71 -7 153 -3 31 2 57 0 57 -3
0 -3 20 -3 45 1 25 4 48 4 50 0 3 -4 22 -4 42 -1 21 4 55 4 76 0 21 -3 40 -2
43 3 3 4 9 6 14 3 9 -6 71 -7 153 -3 31 2 57 0 57 -3 0 -3 20 -3 45 1 25 4 48
4 50 0 2 -4 21 -4 42 -1 21 4 55 4 76 0 20 -3 40 -2 43 2 3 5 9 7 14 4 9 -6
71 -7 153 -3 31 2 57 1 57 -2 0 -4 47 -4 135 1 11 0 55 0 97 -1 43 -1 82 1 87
4 5 4 12 3 15 -2 3 -5 19 -7 36 -4 l32 5 -4 63 c-2 35 -1 64 2 64 3 0 5 25 5
55 0 30 -2 55 -5 55 -3 0 -4 26 -3 57 2 32 3 77 3 101 -1 23 -1 50 -1 60 1 39
0 80 -2 130 -1 28 1 52 5 52 3 0 4 9 1 19 -3 11 5 48 16 83 26 77 84 144 161
184 49 26 65 29 140 28 67 -1 95 -6 134 -24 94 -45 166 -140 182 -241 7 -47 6
-127 -2 -141 -3 -4 -1 -8 3 -8 5 0 6 -29 3 -65 -3 -36 -3 -65 0 -65 6 0 3
-146 -4 -172 -2 -10 -1 -18 3 -18 3 0 4 -28 1 -62 -3 -35 -3 -83 0 -108 l5
-45 55 -3 c30 -1 69 -2 85 -2 17 1 37 1 45 1 40 -1 110 0 158 2 28 1 52 -1 52
-4 0 -3 20 -3 45 1 25 4 48 4 50 0 3 -4 22 -4 42 -1 21 4 55 4 76 0 21 -3 40
-2 43 3 3 4 9 6 14 3 9 -6 71 -7 153 -3 31 2 57 0 57 -3 0 -3 20 -3 45 1 25 4
48 4 50 0 3 -4 22 -4 42 -1 21 4 55 4 76 0 21 -3 40 -2 43 3 3 4 9 6 14 3 9
-6 71 -7 153 -3 31 2 57 0 57 -3 0 -3 20 -3 45 1 25 4 48 4 50 0 2 -4 21 -4
42 -1 21 4 55 4 76 0 20 -3 40 -2 43 2 3 5 9 7 14 4 9 -6 71 -7 153 -3 31 2
57 1 57 -2 0 -3 28 -4 62 -2 82 4 139 2 150 -4 4 -3 8 0 8 6 0 6 4 9 8 6 17
-10 136 25 201 59 108 57 187 142 241 258 39 82 45 114 44 232 0 89 -4 111
-37 205 -21 58 -39 112 -42 120 -2 8 -19 58 -38 110 -37 103 -42 115 -52 145
-15 44 -116 328 -160 450 -25 72 -53 150 -61 175 -8 25 -19 54 -24 65 -5 11
-16 40 -24 65 -28 84 -84 245 -116 330 -17 47 -33 90 -34 95 -2 6 -6 17 -9 25
-3 8 -24 67 -46 130 -80 231 -102 295 -111 315 -4 11 -41 112 -80 225 -68 194
-86 245 -158 450 -17 47 -44 126 -62 175 -17 50 -34 97 -37 105 -3 8 -7 20 -9
25 -16 66 -135 364 -162 409 -38 64 -165 196 -187 196 -7 0 -15 4 -17 8 -4 11
-130 71 -161 78 -81 17 -114 22 -148 20 -22 0 -39 3 -39 7 0 5 -5 5 -10 2 -6
-4 -50 -6 -98 -5 -90 1 -94 1 -180 -3 -28 -1 -52 0 -52 3 0 4 -47 4 -135 -1
-11 0 -55 0 -97 1 -43 1 -82 -1 -87 -4 -5 -4 -12 -3 -15 2 -3 5 -18 7 -35 4
-25 -3 -30 -9 -33 -42 -2 -21 -1 -48 2 -61 3 -13 3 -45 0 -71 -4 -26 -3 -53 0
-59 4 -6 4 -28 0 -50 -4 -22 -4 -41 -1 -43 4 -3 4 -33 1 -68 -3 -35 -3 -84 0
-110 3 -27 2 -48 -3 -48 -4 0 -6 -4 -3 -8 3 -5 6 -26 7 -48 9 -205 -146 -363
-344 -350 -36 2 -72 8 -79 12 -7 5 -18 9 -25 10 -43 7 -132 95 -165 164 -21
45 -28 134 -28 355 0 33 0 69 0 80 -1 11 -1 26 -1 33 0 14 0 94 0 117 0 8 0
49 1 91 1 42 -3 81 -8 86 -10 10 -187 12 -203 3 -5 -4 -9 -2 -9 3 0 6 -8 8
-17 6 -27 -7 -173 -10 -173 -4 0 3 -29 3 -65 0 -36 -3 -65 -2 -65 3 0 4 -5 5
-10 2 -14 -9 -165 -9 -179 -1 -6 4 -11 4 -11 -1z m1157 -1619 c110 -33 200
-138 219 -255 7 -47 6 -127 -2 -141 -3 -4 -1 -8 3 -8 5 0 6 -29 3 -65 -3 -36
-3 -65 0 -65 6 0 3 -146 -4 -172 -2 -10 -1 -18 3 -18 3 0 4 -29 1 -65 -3 -36
-2 -65 3 -65 4 0 6 -4 3 -9 -4 -5 -6 -35 -7 -68 -1 -131 -67 -240 -179 -299
-49 -26 -65 -29 -140 -28 -67 1 -95 6 -134 24 -99 48 -173 150 -182 254 -6 71
-6 155 1 166 3 5 1 11 -3 14 -5 3 -6 26 -2 51 4 25 4 45 1 45 -3 0 -5 26 -3
57 4 82 3 144 -3 153 -3 5 -1 11 4 14 4 3 5 23 1 44 -3 21 -4 47 0 58 4 10 4
31 -1 46 -4 14 -5 29 -2 31 2 3 6 21 8 40 4 44 34 127 46 127 5 0 9 6 9 13 0
13 38 51 85 84 70 49 182 64 272 37z"/>
</g>
</svg>
